<svg width="128" height="128" viewBox="0 0 128 128" fill="none" xmlns="http://www.w3.org/2000/svg">
<rect x="5" y="23.5139" width="118" height="81.9897" rx="15" fill="#1A1A1A"/>
<rect x="5.5" y="24.0139" width="117" height="80.9897" rx="14.5" stroke="#D4D4D4" stroke-opacity="0.3"/>
<g filter="url(#filter0_d_39_352)">
<path d="M31.9226 44.7092C31.9226 40.8781 36.0869 38.4916 39.4295 40.4072L73.0489 59.6739C76.4007 61.5948 76.4124 66.3985 73.0698 68.314L39.4504 87.5808C36.1078 89.4964 31.9226 87.0845 31.9226 83.2427L31.9226 44.7092Z" fill="#D9D9D9"/>
</g>
<g filter="url(#filter1_d_39_352)">
<path d="M61.4226 44.7092C61.4226 40.8781 65.5869 38.4916 68.9295 40.4072L102.549 59.6739C105.901 61.5948 105.912 66.3985 102.57 68.314L68.9504 87.5808C65.6078 89.4964 61.4226 87.0845 61.4226 83.2427L61.4226 44.7092Z" fill="#D9D9D9"/>
</g>
<defs>
<filter id="filter0_d_39_352" x="27.9226" y="39.7317" width="51.6472" height="56.5205" filterUnits="userSpaceOnUse" color-interpolation-filters="sRGB">
<feFlood flood-opacity="0" result="BackgroundImageFix"/>
<feColorMatrix in="SourceAlpha" type="matrix" values="0 0 0 0 0 0 0 0 0 0 0 0 0 0 0 0 0 0 127 0" result="hardAlpha"/>
<feOffset dy="4"/>
<feGaussianBlur stdDeviation="2"/>
<feComposite in2="hardAlpha" operator="out"/>
<feColorMatrix type="matrix" values="0 0 0 0 0 0 0 0 0 0 0 0 0 0 0 0 0 0 0.25 0"/>
<feBlend mode="normal" in2="BackgroundImageFix" result="effect1_dropShadow_39_352"/>
<feBlend mode="normal" in="SourceGraphic" in2="effect1_dropShadow_39_352" result="shape"/>
</filter>
<filter id="filter1_d_39_352" x="57.4226" y="39.7317" width="51.6472" height="56.5205" filterUnits="userSpaceOnUse" color-interpolation-filters="sRGB">
<feFlood flood-opacity="0" result="BackgroundImageFix"/>
<feColorMatrix in="SourceAlpha" type="matrix" values="0 0 0 0 0 0 0 0 0 0 0 0 0 0 0 0 0 0 127 0" result="hardAlpha"/>
<feOffset dy="4"/>
<feGaussianBlur stdDeviation="2"/>
<feComposite in2="hardAlpha" operator="out"/>
<feColorMatrix type="matrix" values="0 0 0 0 0 0 0 0 0 0 0 0 0 0 0 0 0 0 0.25 0"/>
<feBlend mode="normal" in2="BackgroundImageFix" result="effect1_dropShadow_39_352"/>
<feBlend mode="normal" in="SourceGraphic" in2="effect1_dropShadow_39_352" result="shape"/>
</filter>
</defs>
</svg>
